# xmcd
#
# Track frame offsets: 
#        150
#        15535
#        42030
#        62247
#        87749
#        106195
#        129738
#        145834
#        167811
#        187332
#        217228
#
# Disc length: 2938 seconds
#
# Revision: 0
# Processed by: cddbd v1.5.2PL0 Copyright (c) Steve Scherf et al.
# Submitted via: ExactAudioCopy v0.95b4
#
DISCID=a70b780b
DTITLE=The Galactic Cowboy Orchestra - Lookin' For a Little Strange
DYEAR=2009
DGENRE=Progressive Rock
TTITLE0=The Biscuit Breakdown
TTITLE1=Minor Scrape
TTITLE2=Slow Pour
TTITLE3=Raga Piloo
TTITLE4=Iron Range Knee High
TTITLE5=Dark Matter
TTITLE6=Gypsy Grass Jump
TTITLE7=Driving South Wes
TTITLE8=Missing Parts
TTITLE9=Odd Men Out
TTITLE10=hidden track
EXTD=
EXTT0=
EXTT1=
EXTT2=
EXTT3=
EXTT4=
EXTT5=
EXTT6=
EXTT7=
EXTT8=
EXTT9=
EXTT10=
PLAYORDER=
